<?xml version="1.0" encoding="UTF-8" standalone="no"?>
<!DOCTYPE svg PUBLIC "-//W3C//DTD SVG 1.0//EN" "http://www.w3.org/TR/2001/PR-SVG-20010719/DTD/svg10.dtd">
<svg width="31cm" height="11cm" viewBox="199 59 602 203" xmlns="http://www.w3.org/2000/svg" xmlns:xlink="http://www.w3.org/1999/xlink">
  <g>
    <rect style="fill: #ffffff" x="300" y="60" width="160" height="40"/>
    <rect style="fill: none; fill-opacity:0; stroke-width: 2; stroke: #000000" x="300" y="60" width="160" height="40"/>
    <text font-size="12.8" style="fill: #000000;text-anchor:middle;font-family:sans-serif;font-style:normal;font-weight:normal" x="380" y="83.9">
      <tspan x="380" y="83.9">Grid Coord Selected</tspan>
    </text>
  </g>
  <g>
    <rect style="fill: #ffffff" x="460" y="60" width="160" height="40"/>
    <rect style="fill: none; fill-opacity:0; stroke-width: 2; stroke: #000000" x="460" y="60" width="160" height="40"/>
    <text font-size="12.8" style="fill: #000000;text-anchor:middle;font-family:sans-serif;font-style:normal;font-weight:normal" x="540" y="83.9">
      <tspan x="540" y="83.9">List Coord Selected</tspan>
    </text>
  </g>
  <g>
    <rect style="fill: #ffffff" x="620" y="60" width="180" height="40"/>
    <rect style="fill: none; fill-opacity:0; stroke-width: 2; stroke: #000000" x="620" y="60" width="180" height="40"/>
    <text font-size="12.8" style="fill: #000000;text-anchor:middle;font-family:sans-serif;font-style:normal;font-weight:normal" x="710" y="83.9">
      <tspan x="710" y="83.9">Grid List Coord Selected</tspan>
    </text>
  </g>
  <g>
    <rect style="fill: #ffffff" x="200" y="100" width="101.55" height="40"/>
    <rect style="fill: none; fill-opacity:0; stroke-width: 2; stroke: #000000" x="200" y="100" width="101.55" height="40"/>
    <text font-size="12.8" style="fill: #000000;text-anchor:middle;font-family:sans-serif;font-style:normal;font-weight:normal" x="250.775" y="123.9">
      <tspan x="250.775" y="123.9">Select</tspan>
    </text>
  </g>
  <g>
    <rect style="fill: #ffffff" x="300" y="100" width="160" height="40"/>
    <rect style="fill: none; fill-opacity:0; stroke-width: 2; stroke: #000000" x="300" y="100" width="160" height="40"/>
    <text font-size="12.8" style="fill: #000000;text-anchor:middle;font-family:sans-serif;font-style:normal;font-weight:normal" x="380" y="123.9">
      <tspan x="380" y="123.9">O(1)</tspan>
    </text>
  </g>
  <g>
    <rect style="fill: #ffffff" x="460" y="100" width="160" height="40"/>
    <rect style="fill: none; fill-opacity:0; stroke-width: 2; stroke: #000000" x="460" y="100" width="160" height="40"/>
    <text font-size="12.8" style="fill: #000000;text-anchor:middle;font-family:sans-serif;font-style:normal;font-weight:normal" x="540" y="123.9">
      <tspan x="540" y="123.9">O(n)</tspan>
    </text>
  </g>
  <g>
    <rect style="fill: #ffffff" x="620" y="100" width="180" height="40"/>
    <rect style="fill: none; fill-opacity:0; stroke-width: 2; stroke: #000000" x="620" y="100" width="180" height="40"/>
    <text font-size="12.8" style="fill: #000000;text-anchor:middle;font-family:sans-serif;font-style:normal;font-weight:normal" x="710" y="123.9">
      <tspan x="710" y="123.9">O(1)</tspan>
    </text>
  </g>
  <g>
    <rect style="fill: #ffffff" x="200" y="140" width="101.55" height="40"/>
    <rect style="fill: none; fill-opacity:0; stroke-width: 2; stroke: #000000" x="200" y="140" width="101.55" height="40"/>
    <text font-size="12.8" style="fill: #000000;text-anchor:middle;font-family:sans-serif;font-style:normal;font-weight:normal" x="250.775" y="163.9">
      <tspan x="250.775" y="163.9">Deselect</tspan>
    </text>
  </g>
  <g>
    <rect style="fill: #ffffff" x="300" y="140" width="160" height="40"/>
    <rect style="fill: none; fill-opacity:0; stroke-width: 2; stroke: #000000" x="300" y="140" width="160" height="40"/>
    <text font-size="12.8" style="fill: #000000;text-anchor:middle;font-family:sans-serif;font-style:normal;font-weight:normal" x="380" y="163.9">
      <tspan x="380" y="163.9">O(1)</tspan>
    </text>
  </g>
  <g>
    <rect style="fill: #ffffff" x="460" y="140" width="160" height="40"/>
    <rect style="fill: none; fill-opacity:0; stroke-width: 2; stroke: #000000" x="460" y="140" width="160" height="40"/>
    <text font-size="12.8" style="fill: #000000;text-anchor:middle;font-family:sans-serif;font-style:normal;font-weight:normal" x="540" y="163.9">
      <tspan x="540" y="163.9">O(n)</tspan>
    </text>
  </g>
  <g>
    <rect style="fill: #ffffff" x="620" y="140" width="180" height="40"/>
    <rect style="fill: none; fill-opacity:0; stroke-width: 2; stroke: #000000" x="620" y="140" width="180" height="40"/>
    <text font-size="12.8" style="fill: #000000;text-anchor:middle;font-family:sans-serif;font-style:normal;font-weight:normal" x="710" y="163.9">
      <tspan x="710" y="163.9">O(1)</tspan>
    </text>
  </g>
  <g>
    <rect style="fill: #ffffff" x="200" y="180" width="100" height="40"/>
    <rect style="fill: none; fill-opacity:0; stroke-width: 2; stroke: #000000" x="200" y="180" width="100" height="40"/>
    <text font-size="12.8" style="fill: #000000;text-anchor:middle;font-family:sans-serif;font-style:normal;font-weight:normal" x="250" y="203.9">
      <tspan x="250" y="203.9">is Selected</tspan>
    </text>
  </g>
  <g>
    <rect style="fill: #ffffff" x="300" y="180" width="160" height="40"/>
    <rect style="fill: none; fill-opacity:0; stroke-width: 2; stroke: #000000" x="300" y="180" width="160" height="40"/>
    <text font-size="12.8" style="fill: #000000;text-anchor:middle;font-family:sans-serif;font-style:normal;font-weight:normal" x="380" y="203.9">
      <tspan x="380" y="203.9">O(1)</tspan>
    </text>
  </g>
  <g>
    <rect style="fill: #ffffff" x="460" y="180" width="160" height="40"/>
    <rect style="fill: none; fill-opacity:0; stroke-width: 2; stroke: #000000" x="460" y="180" width="160" height="40"/>
    <text font-size="12.8" style="fill: #000000;text-anchor:middle;font-family:sans-serif;font-style:normal;font-weight:normal" x="540" y="203.9">
      <tspan x="540" y="203.9">O(n)</tspan>
    </text>
  </g>
  <g>
    <rect style="fill: #ffffff" x="620" y="180" width="180" height="40"/>
    <rect style="fill: none; fill-opacity:0; stroke-width: 2; stroke: #000000" x="620" y="180" width="180" height="40"/>
    <text font-size="12.8" style="fill: #000000;text-anchor:middle;font-family:sans-serif;font-style:normal;font-weight:normal" x="710" y="203.9">
      <tspan x="710" y="203.9">O(1)</tspan>
    </text>
  </g>
  <g>
    <rect style="fill: #ffffff" x="200" y="220" width="100" height="40"/>
    <rect style="fill: none; fill-opacity:0; stroke-width: 2; stroke: #000000" x="200" y="220" width="100" height="40"/>
    <text font-size="12.8" style="fill: #000000;text-anchor:middle;font-family:sans-serif;font-style:normal;font-weight:normal" x="250" y="243.9">
      <tspan x="250" y="243.9">Clear</tspan>
    </text>
  </g>
  <g>
    <rect style="fill: #ffffff" x="300" y="220" width="160" height="40"/>
    <rect style="fill: none; fill-opacity:0; stroke-width: 2; stroke: #000000" x="300" y="220" width="160" height="40"/>
    <text font-size="12.8" style="fill: #000000;text-anchor:middle;font-family:sans-serif;font-style:normal;font-weight:normal" x="380" y="243.9">
      <tspan x="380" y="243.9">O(w*h)</tspan>
    </text>
  </g>
  <g>
    <rect style="fill: #ffffff" x="460" y="220" width="160" height="40"/>
    <rect style="fill: none; fill-opacity:0; stroke-width: 2; stroke: #000000" x="460" y="220" width="160" height="40"/>
    <text font-size="12.8" style="fill: #000000;text-anchor:middle;font-family:sans-serif;font-style:normal;font-weight:normal" x="540" y="243.9">
      <tspan x="540" y="243.9">O(1)</tspan>
    </text>
  </g>
  <g>
    <rect style="fill: #ffffff" x="620" y="220" width="180" height="40"/>
    <rect style="fill: none; fill-opacity:0; stroke-width: 2; stroke: #000000" x="620" y="220" width="180" height="40"/>
    <text font-size="12.8" style="fill: #000000;text-anchor:middle;font-family:sans-serif;font-style:normal;font-weight:normal" x="710" y="243.9">
      <tspan x="710" y="243.9">O(n)</tspan>
    </text>
  </g>
</svg>
